<?xml version="1.0" encoding="UTF-8"?> <svg xmlns="http://www.w3.org/2000/svg" width="96" height="96" viewBox="0 0 96 96" fill="none"><g clip-path="url(#clip0)"><path d="M52.6825 95.2416C78.7726 92.6513 97.8229 69.4012 95.2326 43.311C92.6423 17.2209 69.3921 -1.8294 43.302 0.76094C17.2119 3.35128 -1.83842 26.6014 0.751924 52.6915C3.34227 78.7816 26.5924 97.8319 52.6825 95.2416Z" fill="#FFCB05"></path><path d="M47.997 95.9998C38.5028 95.9998 29.2219 93.1845 21.3279 87.9098C13.4338 82.6352 7.28116 75.1381 3.64792 66.3667C0.0146802 57.5953 -0.93594 47.9435 0.916268 38.6318C2.76848 29.3201 7.34032 20.7668 14.0537 14.0534C20.767 7.34009 29.3203 2.76825 38.632 0.916039C47.9437 -0.936169 57.5955 0.0144513 66.3669 3.64769C75.1383 7.28093 82.6354 13.4336 87.91 21.3277C93.1847 29.2217 96 38.5026 96 47.9967C95.9855 60.7235 90.9234 72.9248 81.9242 81.924C72.925 90.9231 60.7237 95.9853 47.997 95.9998ZM47.997 1.04849C38.7115 1.04849 29.6345 3.80195 21.9139 8.96069C14.1933 14.1194 8.17584 21.4517 4.62244 30.0304C1.06903 38.6091 0.139303 48.0488 1.95081 57.1559C3.76232 66.2629 8.23371 74.6283 14.7995 81.1942C21.3654 87.76 29.7307 92.2314 38.8378 94.0429C47.9449 95.8544 57.3846 94.9246 65.9633 91.3712C74.5419 87.8178 81.8743 81.8004 87.033 74.0798C92.1917 66.3592 94.9452 57.2822 94.9452 47.9967C94.9291 35.5502 89.9776 23.6181 81.1766 14.8171C72.3756 6.01612 60.4435 1.06462 47.997 1.04849Z" fill="#231F20"></path><path d="M7.64586 47.9969C7.64586 40.0147 10.0129 32.2118 14.4477 25.575C18.8825 18.9381 25.1858 13.7655 32.5604 10.7111C39.9351 7.65673 48.0499 6.85788 55.8786 8.41557C63.7073 9.97325 70.8982 13.8175 76.542 19.4622C82.1859 25.1068 86.029 32.2984 87.5855 40.1273C89.142 47.9562 88.342 56.0709 85.2865 63.4451C82.231 70.8193 77.0574 77.1218 70.4199 81.5556C63.7824 85.9894 55.9791 88.3553 47.997 88.3541C42.6975 88.3541 37.4499 87.3101 32.5538 85.2819C27.6578 83.2537 23.2093 80.2809 19.4623 76.5333C15.7152 72.7857 12.7431 68.3368 10.7157 63.4404C8.68818 58.5441 7.64506 53.2964 7.64586 47.9969Z" fill="url(#paint0_linear)"></path><path d="M47.9969 4.06055C39.3057 4.06055 30.8097 6.63787 23.5833 11.4666C16.3568 16.2953 10.7247 23.1585 7.39894 31.1883C4.07323 39.2181 3.20338 48.0537 4.8994 56.5778C6.59542 65.102 10.7811 72.9317 16.9272 79.077C23.0732 85.2222 30.9036 89.4068 39.428 91.1016C47.9523 92.7964 56.7879 91.9254 64.8172 88.5985C72.8465 85.2717 79.7089 79.6386 84.5366 72.4115C89.3643 65.1844 91.9405 56.688 91.9393 47.9968C91.9393 42.2265 90.8026 36.5127 88.5942 31.1817C86.3859 25.8507 83.149 21.007 79.0685 16.927C74.988 12.8471 70.1438 9.61089 64.8125 7.40324C59.4812 5.1956 53.7672 4.05975 47.9969 4.06055ZM56.6427 81.3483C56.6976 79.8179 56.7769 78.44 56.8317 78.1778C57.2768 76.2084 58.1548 74.428 66.4348 67.2029C74.7148 59.9777 79.4279 42.0337 66.6238 31.6564C58.6975 26.1323 55.8379 28.8943 52.4723 22.9923C51.1797 20.718 49.7712 18.1999 49.4907 16.7244C49.4907 16.7244 49.4907 22.4374 49.4907 23.0471C49.381 25.486 49.6066 29.5589 54.0209 32.3758C56.2586 33.8026 69.7456 40.7472 64.0081 54.7281C57.3866 67.5321 50.2468 64.6299 52.6735 60.435C56.5391 55.5573 56.3927 51.71 56.3927 51.71C56.3927 46.692 52.8625 42.6191 48.5152 42.6191C48.1497 42.5979 47.7832 42.5979 47.4177 42.6191C43.0704 42.6191 39.5402 46.692 39.5402 51.71C39.5402 51.71 39.3938 55.539 43.2594 60.435C45.6983 64.6299 38.5463 67.5321 31.9248 54.7281C26.1813 40.7472 39.6682 33.8026 41.912 32.3758C46.3263 29.5589 46.5519 25.4738 46.4422 23.0471C46.4422 22.4374 46.4422 16.7244 46.4422 16.7244C46.1617 18.1999 44.7532 20.718 43.4606 22.9923C40.0889 28.8943 37.2232 26.1323 29.3152 31.6564C16.5111 42.0215 21.2121 59.9899 29.492 67.2029C37.772 74.4158 38.6378 76.2023 39.1012 78.1778C39.156 78.4339 39.2292 79.8057 39.2902 81.33C31.183 79.2197 24.1228 74.2271 19.4313 67.2866C14.7398 60.3462 12.7386 51.9338 13.8023 43.6243C14.8661 35.3147 18.9218 27.6777 25.2104 22.1429C31.4989 16.6081 39.5891 13.5549 47.9665 13.5549C56.3438 13.5549 64.434 16.6081 70.7225 22.1429C77.0111 27.6777 81.0668 35.3147 82.1306 43.6243C83.1943 51.9338 81.1931 60.3462 76.5016 67.2866C71.8101 74.2271 64.7499 79.2197 56.6427 81.33V81.3483Z" fill="#231F20"></path></g><defs><linearGradient id="paint0_linear" x1="48.003" y1="88.3541" x2="48.003" y2="7.64577" gradientUnits="userSpaceOnUse"><stop stop-color="#FFF200"></stop><stop offset="0.25" stop-color="#F7941D"></stop><stop offset="1" stop-color="#ED1C24"></stop></linearGradient><clipPath id="clip0"><rect width="96" height="96" fill="white"></rect></clipPath></defs></svg> 