<?xml version="1.0" encoding="UTF-8"?> <svg xmlns="http://www.w3.org/2000/svg" width="520" height="76" viewBox="0 0 520 76" fill="none"><path d="M0 38C0 17.0164 17.0164 0 38 0C58.9836 0 76 17.0164 76 38C76 58.9836 58.9836 76 38 76C17.0164 76 0 58.9836 0 38Z" fill="url(#paint0_linear)"></path><path d="M0 38C0 17.0113 17.0113 0 38 0C58.9887 0 76 17.0113 76 38C76 58.9887 58.9887 76 38 76C17.0113 75.9916 0 58.9803 0 38Z" fill="url(#paint1_linear)"></path><path d="M38 2.83411C18.5754 2.83411 2.83386 18.5756 2.83386 38.0003C2.83386 57.4249 18.5754 73.1665 38 73.1665C57.4247 73.1665 73.1662 57.4165 73.1662 38.0003C73.1662 18.5756 57.4247 2.83411 38 2.83411ZM44.9122 64.6902C44.9542 63.4625 45.0131 62.361 45.0635 62.1508C45.4167 60.5699 46.1231 59.1488 52.7493 53.3718C59.3756 47.5949 63.1512 33.224 52.9007 24.916C46.5687 20.5013 44.2731 22.7044 41.5822 17.9786C40.5479 16.1623 39.4127 14.1441 39.1941 12.9669C39.1941 12.9669 39.2193 17.5413 39.1941 18.0291C39.1016 19.9715 39.2866 23.2426 42.8184 25.4962C44.6095 26.6398 55.4065 32.1981 50.8153 43.3904C45.5176 53.6409 39.7996 51.3116 41.742 47.9565C44.8365 44.0379 44.7188 40.977 44.7188 40.977C44.7188 36.9576 41.8934 33.7033 38.4121 33.7033C38.4121 33.7033 37.9664 33.6697 37.5375 33.7033C34.0562 33.7033 31.2308 36.9576 31.2308 40.977C31.2308 40.977 31.1131 44.0379 34.2076 47.9565C36.1501 51.3116 30.4404 53.6409 25.1344 43.3904C20.5431 32.1981 31.3318 26.6398 33.1313 25.4962C36.663 23.2426 36.8396 19.9715 36.7555 18.0291C36.7303 17.5413 36.7555 12.9669 36.7555 12.9669C36.5369 14.1525 35.4017 16.1623 34.3674 17.9786C31.6681 22.7044 29.3809 20.4929 23.0489 24.916C12.7985 33.224 16.5657 47.5949 23.1919 53.3718C29.8266 59.1488 30.5245 60.5699 30.8777 62.1508C30.9281 62.361 30.9786 63.4541 31.029 64.6734C19.1724 61.5874 10.4271 50.8155 10.4271 38.0003C10.4271 22.7717 22.7715 10.4274 37.9916 10.4274C53.2202 10.4274 65.5645 22.7717 65.5645 38.0003C65.5645 50.8323 56.794 61.621 44.9122 64.6902Z" fill="#222222"></path><path d="M98.1 36.15H118.5V38.15H98.1V57.65H96V18.65H120.9V20.75H98.1V36.15Z" fill="white"></path><path d="M130 57.75H127.9V18.65H130V57.75Z" fill="white"></path><path d="M167.3 57.75H165.2C164.7 56.65 164.4 55.35 164.4 53.55V47.85C164.4 41.65 159.9 40.35 156.1 40.35H141.6V57.85H139.5V18.65H155.9C163.1 18.65 167.6 22.85 167.6 29.45C167.6 34.15 165.1 37.65 161.1 39.25C164.5 40.55 166.5 43.45 166.5 47.85V53.05C166.4 54.45 166.8 56.55 167.3 57.75ZM165.5 29.45C165.5 23.95 162.1 20.75 156 20.75H141.6V38.25H156.2C160.8 38.25 165.5 35.45 165.5 29.45Z" fill="white"></path><path d="M177 36.15H198.4V38.15H177V55.55H200.8V57.65H174.9V18.65H200.8V20.75H177V36.15Z" fill="white"></path><path d="M210.7 55.65C212.6 55.65 233.2 55.65 233.2 55.65V57.75H208.6V18.65H210.7C210.7 18.65 210.7 53.55 210.7 55.65Z" fill="white"></path><path d="M241.6 57.75H239.5V18.65H241.6V57.75Z" fill="white"></path><path d="M286.4 38.75C286.4 41.65 285.9 44.35 285 46.75C284.1 49.15 282.8 51.25 281.1 52.95C279.4 54.65 277.4 56.05 275.1 56.95C272.8 57.85 270.2 58.35 267.4 58.35C264.7 58.35 262.2 57.85 259.9 56.75C257.6 55.6501 255.5 54.25 253.8 52.35C252.1 50.55 250.7 48.35 249.7 45.85C248.7 43.35 248.2 40.75 248.2 37.95C248.2 35.15 248.7 32.4501 249.7 30.05C250.7 27.55 252.1 25.45 253.8 23.55C255.5 21.75 257.6 20.25 259.9 19.15C262.2 18.05 264.8 17.55 267.4 17.55C269.5 17.55 271.6 17.85 273.5 18.45C275.4 19.05 277.1 19.95 278.7 21.05C280.3 22.15 281.6 23.55 282.8 25.15C284 26.75 284.9 28.55 285.6 30.55H283.4C282.1 27.15 280 24.45 277.2 22.55C274.4 20.65 271.2 19.65 267.5 19.65C265.1 19.65 262.9 20.15 260.8 21.05C258.7 22.05 256.9 23.35 255.3 24.95C253.7 26.65 252.5 28.55 251.6 30.75C250.7 32.95 250.2 35.35 250.2 37.85C250.2 40.45 250.7 42.75 251.6 45.05C252.5 47.25 253.7 49.25 255.3 50.85C256.9 52.55 258.7 53.85 260.8 54.75C262.9 55.75 265.1 56.15 267.5 56.15C269.9 56.15 272.2 55.75 274.2 54.95C276.2 54.15 278 53.05 279.4 51.55C280.9 50.15 282 48.35 282.9 46.35C283.7 44.35 284.2 42.05 284.3 39.55H267.9V37.45H286.4V38.75Z" fill="white"></path><path d="M323.2 57.75H321.1V38.25H294.8V57.65H292.7V18.65H294.8V36.15H321.1V18.65H323.2V57.75Z" fill="white"></path><path d="M343.4 20.65V57.65H341.3V20.65H328.2V18.55H356.6V20.65H343.4Z" fill="white"></path><path d="M402.6 28.95C402.6 30.65 402.3 32.35 401.7 33.85C401.1 35.35 400.2 36.75 399.1 37.95C398 39.15 396.7 40.15 395.2 40.85C393.7 41.65 392.2 42.05 390.5 42.15V57.85H388.4V42.05C386.7 41.95 385.1 41.55 383.7 40.75C382.2 39.9501 380.9 39.05 379.8 37.85C378.7 36.65 377.8 35.35 377.2 33.75C376.6 32.25 376.3 30.65 376.3 28.85V18.55H378.4V28.95C378.4 30.45 378.7 31.95 379.3 33.25C379.9 34.55 380.7 35.75 381.7 36.75C382.7 37.75 383.9 38.55 385.2 39.15C386.5 39.75 388 40.05 389.5 40.05C391 40.05 392.4 39.75 393.8 39.15C395.2 38.55 396.3 37.75 397.3 36.75C398.3 35.75 399.1 34.55 399.7 33.25C400.3 31.95 400.6 30.45 400.6 28.95V18.55H402.7V28.95H402.6Z" fill="white"></path><path d="M426.5 17.65C429.2 17.65 431.7 18.15 434.1 19.25C436.4 20.35 438.5 21.75 440.2 23.55C441.9 25.35 443.3 27.55 444.3 30.05C445.3 32.55 445.8 35.15 445.8 38.05C445.8 40.85 445.3 43.55 444.3 45.95C443.3 48.45 441.9 50.55 440.2 52.45C438.5 54.25 436.4 55.75 434.1 56.85C431.8 57.95 429.3 58.45 426.6 58.45C423.9 58.45 421.4 57.95 419.1 56.85C416.8 55.75 414.7 54.35 413 52.45C411.3 50.65 409.9 48.45 408.9 45.95C407.9 43.45 407.4 40.85 407.4 38.05C407.4 35.25 407.9 32.55 408.9 30.15C409.9 27.65 411.3 25.55 413 23.65C414.7 21.85 416.8 20.35 419.1 19.25C421.4 18.15 423.9 17.65 426.5 17.65ZM426.5 56.35C428.9 56.35 431.1 55.85 433.2 54.95C435.3 53.95 437.1 52.65 438.7 51.05C440.2 49.35 441.5 47.45 442.4 45.25C443.3 43.05 443.8 40.65 443.8 38.15C443.8 35.55 443.4 33.25 442.5 30.95C441.6 28.75 440.4 26.75 438.8 25.15C437.2 23.55 435.4 22.25 433.3 21.25C431.2 20.35 429 19.85 426.6 19.85C424.2 19.85 422 20.35 419.9 21.25C417.8 22.25 416 23.55 414.4 25.15C412.8 26.85 411.6 28.75 410.7 30.95C409.8 33.15 409.3 35.55 409.3 38.05C409.3 40.65 409.8 42.95 410.7 45.25C411.6 47.45 412.8 49.45 414.4 51.05C416 52.75 417.8 54.05 419.9 54.95C421.9 55.85 424.2 56.35 426.5 56.35Z" fill="white"></path><path d="M487.6 38.75C487.6 41.65 487.1 44.35 486.2 46.75C485.3 49.15 484 51.25 482.3 52.95C480.6 54.65 478.6 56.05 476.3 56.95C474 57.85 471.4 58.35 468.6 58.35C465.9 58.35 463.4 57.85 461.1 56.75C458.8 55.6501 456.7 54.25 455 52.35C453.3 50.55 451.9 48.35 450.9 45.85C449.9 43.35 449.4 40.75 449.4 37.95C449.4 35.15 449.9 32.4501 450.9 30.05C451.9 27.55 453.3 25.45 455 23.55C456.7 21.75 458.8 20.25 461.1 19.15C463.4 18.05 466 17.55 468.6 17.55C470.7 17.55 472.8 17.85 474.7 18.45C476.6 19.05 478.3 19.95 479.9 21.05C481.5 22.15 482.8 23.55 484 25.15C485.2 26.75 486.1 28.55 486.8 30.55H484.6C483.3 27.15 481.2 24.45 478.4 22.55C475.6 20.65 472.4 19.65 468.7 19.65C466.3 19.65 464.1 20.15 462 21.05C459.9 22.05 458.1 23.35 456.5 24.95C454.9 26.65 453.7 28.55 452.8 30.75C451.9 32.95 451.4 35.35 451.4 37.85C451.4 40.45 451.9 42.75 452.8 45.05C453.7 47.25 454.9 49.25 456.5 50.85C458.1 52.55 459.9 53.85 462 54.75C464.1 55.75 466.3 56.15 468.7 56.15C471.1 56.15 473.4 55.75 475.4 54.95C477.4 54.15 479.2 53.05 480.6 51.55C482.1 50.15 483.2 48.35 484.1 46.35C484.9 44.35 485.4 42.05 485.5 39.55H469.1V37.45H487.6V38.75Z" fill="white"></path><path d="M495.3 57.75H493.2V30.75C493.2 28.95 493.5 27.25 494.2 25.65C494.9 24.05 495.8 22.65 497 21.45C498.2 20.25 499.6 19.35 501.2 18.65C502.8 17.95 504.5 17.65 506.3 17.65C508.1 17.65 509.8 17.95 511.4 18.65C513 19.35 514.4 20.25 515.6 21.45C516.8 22.65 517.7 24.05 518.4 25.65C519.1 27.25 519.4 28.95 519.4 30.75V57.65H517.3V42.05H495.2V57.75H495.3ZM517.5 30.75C517.5 29.25 517.2 27.85 516.6 26.45C516 25.05 515.2 23.95 514.2 22.95C513.2 21.95 512 21.15 510.7 20.55C509.3 19.95 507.9 19.65 506.4 19.65C504.9 19.65 503.4 19.95 502.1 20.55C500.8 21.15 499.6 21.95 498.6 22.95C497.6 23.95 496.8 25.15 496.2 26.45C495.6 27.85 495.3 29.25 495.3 30.75V39.95H517.4V30.75H517.5Z" fill="white"></path><defs><linearGradient id="paint0_linear" x1="37.9999" y1="75.9988" x2="37.9999" y2="0" gradientUnits="userSpaceOnUse"><stop stop-color="#FFF200"></stop><stop offset="0.2515" stop-color="#F7941D"></stop><stop offset="1" stop-color="#ED1C24"></stop></linearGradient><linearGradient id="paint1_linear" x1="37.9999" y1="75.9988" x2="37.9999" y2="0" gradientUnits="userSpaceOnUse"><stop stop-color="#FFF200"></stop><stop offset="0.2515" stop-color="#F7941D"></stop><stop offset="1" stop-color="#ED1C24"></stop></linearGradient></defs></svg> 